<?xml version="1.0" encoding="UTF-8" standalone="no"?>
<!-- Created with Inkscape (http://www.inkscape.org/) -->

<svg
   width="64pt"
   height="64pt"
   viewBox="0 0 22.577778 22.577778"
   version="1.1"
   id="svg831"
   inkscape:version="1.1.1 (3bf5ae0d25, 2021-09-20)"
   sodipodi:docname="Export - Unblash - 64px.svg"
   inkscape:export-filename="C:\Users\User\Desktop\CARLOS PROJECT\3. MARET 1\EXPORT\FLAT\12 - Txt File.png"
   inkscape:export-xdpi="576"
   inkscape:export-ydpi="576"
   xmlns:inkscape="http://www.inkscape.org/namespaces/inkscape"
   xmlns:sodipodi="http://sodipodi.sourceforge.net/DTD/sodipodi-0.dtd"
   xmlns="http://www.w3.org/2000/svg"
   xmlns:svg="http://www.w3.org/2000/svg"
   xmlns:rdf="http://www.w3.org/1999/02/22-rdf-syntax-ns#"
   xmlns:cc="http://creativecommons.org/ns#"
   xmlns:dc="http://purl.org/dc/elements/1.1/">
  <defs
     id="defs825">
    <pattern
       id="EMFhbasepattern"
       patternUnits="userSpaceOnUse"
       width="6"
       height="6"
       x="0"
       y="0" />
    <pattern
       id="EMFhbasepattern-9"
       patternUnits="userSpaceOnUse"
       width="6"
       height="6"
       x="0"
       y="0" />
    <pattern
       id="EMFhbasepattern-0"
       patternUnits="userSpaceOnUse"
       width="6"
       height="6"
       x="0"
       y="0" />
    <pattern
       id="EMFhbasepattern-7"
       patternUnits="userSpaceOnUse"
       width="6"
       height="6"
       x="0"
       y="0" />
    <pattern
       id="EMFhbasepattern-2"
       patternUnits="userSpaceOnUse"
       width="6"
       height="6"
       x="0"
       y="0" />
    <pattern
       id="EMFhbasepattern-98"
       patternUnits="userSpaceOnUse"
       width="6"
       height="6"
       x="0"
       y="0" />
    <pattern
       id="EMFhbasepattern-6"
       patternUnits="userSpaceOnUse"
       width="6"
       height="6"
       x="0"
       y="0" />
    <pattern
       id="EMFhbasepattern-01"
       patternUnits="userSpaceOnUse"
       width="6"
       height="6"
       x="0"
       y="0" />
    <pattern
       id="EMFhbasepattern-07"
       patternUnits="userSpaceOnUse"
       width="6"
       height="6"
       x="0"
       y="0" />
    <pattern
       id="EMFhbasepattern-8"
       patternUnits="userSpaceOnUse"
       width="6"
       height="6"
       x="0"
       y="0" />
    <pattern
       id="EMFhbasepattern-4"
       patternUnits="userSpaceOnUse"
       width="6"
       height="6"
       x="0"
       y="0" />
    <pattern
       id="EMFhbasepattern-40"
       patternUnits="userSpaceOnUse"
       width="6"
       height="6"
       x="0"
       y="0" />
    <pattern
       id="EMFhbasepattern-08"
       patternUnits="userSpaceOnUse"
       width="6"
       height="6"
       x="0"
       y="0" />
    <pattern
       id="EMFhbasepattern-04"
       patternUnits="userSpaceOnUse"
       width="6"
       height="6"
       x="0"
       y="0" />
    <pattern
       id="EMFhbasepattern-014"
       patternUnits="userSpaceOnUse"
       width="6"
       height="6"
       x="0"
       y="0" />
    <pattern
       id="EMFhbasepattern-27"
       patternUnits="userSpaceOnUse"
       width="6"
       height="6"
       x="0"
       y="0" />
    <pattern
       id="EMFhbasepattern-09"
       patternUnits="userSpaceOnUse"
       width="6"
       height="6"
       x="0"
       y="0" />
    <pattern
       id="EMFhbasepattern-5"
       patternUnits="userSpaceOnUse"
       width="6"
       height="6"
       x="0"
       y="0" />
    <pattern
       id="EMFhbasepattern-018"
       patternUnits="userSpaceOnUse"
       width="6"
       height="6"
       x="0"
       y="0" />
  </defs>
  <sodipodi:namedview
     id="base"
     pagecolor="#ffffff"
     bordercolor="#666666"
     borderopacity="1.0"
     inkscape:pageopacity="0.0"
     inkscape:pageshadow="2"
     inkscape:zoom="4.5878906"
     inkscape:cx="23.322265"
     inkscape:cy="36.727118"
     inkscape:document-units="pt"
     inkscape:current-layer="layer1"
     showgrid="false"
     units="pt"
     inkscape:window-width="1920"
     inkscape:window-height="1001"
     inkscape:window-x="-9"
     inkscape:window-y="41"
     inkscape:window-maximized="1"
     inkscape:pagecheckerboard="true"
     inkscape:showpageshadow="false"
     inkscape:object-paths="true"
     inkscape:snap-intersection-paths="true"
     inkscape:snap-smooth-nodes="true"
     inkscape:snap-midpoints="true"
     showguides="true"
     inkscape:snap-bbox="true"
     inkscape:bbox-nodes="true"
     inkscape:snap-nodes="false"
     inkscape:snap-global="true">
    <inkscape:grid
       type="xygrid"
       id="grid1378" />
    <sodipodi:guide
       position="0.97013831,21.607643"
       orientation="78.000048,0"
       id="guide1380"
       inkscape:locked="false" />
    <sodipodi:guide
       position="0.97013831,0.97013129"
       orientation="0,78.000005"
       id="guide1382"
       inkscape:locked="false" />
    <sodipodi:guide
       position="21.607639,0.97013129"
       orientation="-78.000048,0"
       id="guide1384"
       inkscape:locked="false" />
    <sodipodi:guide
       position="21.607639,21.607643"
       orientation="0,-78.000005"
       id="guide1386"
       inkscape:locked="false" />
  </sodipodi:namedview>
  <metadata
     id="metadata828">
    <rdf:RDF>
      <cc:Work
         rdf:about="">
        <dc:format>image/svg+xml</dc:format>
        <dc:type
           rdf:resource="http://purl.org/dc/dcmitype/StillImage" />
      </cc:Work>
    </rdf:RDF>
  </metadata>
  <g
     inkscape:label="Icon"
     inkscape:groupmode="layer"
     id="layer1"
     transform="translate(0,-274.42223)">
    <g
       id="g6860"
       style="display:inline;stroke-width:0.743299"
       transform="matrix(1.3453538,0,0,1.3453538,40.934683,-145.1831)">
      <path
         style="color:#000000;fill:#ececec;stroke-width:0.743299;stroke-linecap:round;stroke-linejoin:round;-inkscape-stroke:none"
         d="m -28.234375,312.61328 c -0.589221,0 -1.072266,0.48307 -1.072266,1.07227 v 13.19531 c 0,0.5892 0.483045,1.07227 1.072266,1.07226 H -18 c 0.589221,0 1.072266,-0.48306 1.072266,-1.07226 v -9.69531 c 0,-0.41678 -0.173797,-0.81525 -0.478516,-1.09961 l -3.251953,-3.03321 c -0.301999,-0.28182 -0.700186,-0.43945 -1.113281,-0.43945 z"
         id="path257270" />
      <path
         id="path98755"
         style="fill:#cccccc;fill-opacity:1;stroke-width:2.80932;stroke-linecap:round;stroke-linejoin:round"
         d="m -96.976562,153.13672 c -2.664847,0 -4.857418,2.19259 -4.857418,4.85742 v 15 c 0,2.66483 2.198097,4.84961 4.857418,4.84961 h 32.892578 c 0.270588,-8.12073 0.105468,-16.50148 0.105468,-24.70703 z"
         transform="matrix(0.26458334,0,0,0.26458334,0,280.06666)"
         sodipodi:nodetypes="ssssccs" />
      <path
         id="path93999"
         style="color:#000000;fill:#cccccc;fill-opacity:1;stroke-width:0.743299;stroke-linecap:round;stroke-linejoin:round;-inkscape-stroke:none"
         d="m -28.234453,312.61351 c -0.430704,0 -0.803539,0.25835 -0.973584,0.62735 0.13581,-0.0626 0.285901,-0.0982 0.444418,-0.0982 h 6.46317 c 0.413097,0 0.811112,0.15743 1.113113,0.43925 l 3.251996,3.0334 c 0.304718,0.28437 0.478523,0.68238 0.478523,1.09916 v 9.69554 c 0,0.1585 -0.03612,0.3086 -0.0987,0.44441 0.369006,-0.17005 0.627867,-0.54289 0.627867,-0.97358 v -9.69553 c 0,-0.41679 -0.173805,-0.8148 -0.478523,-1.09916 l -3.251996,-3.03341 c -0.302001,-0.28182 -0.700017,-0.43925 -1.113113,-0.43925 z" />
      <path
         id="path27682"
         style="color:#000000;fill:#4895ef;fill-opacity:1;stroke-width:2.80932;stroke-linecap:round;stroke-linejoin:round;-inkscape-stroke:none"
         d="m -55.814453,151.96094 c 0,-4.07701 -4.627315,-6.02149 -8.164063,-6.02149 v 1.99805 c 2.690528,0.0529 6.164063,1.26191 6.164063,4.09961 0,1.99888 -3.304813,2.95117 -5.550781,2.95117 h -33.611328 c -1.645022,0 -3.003907,1.36086 -3.003907,3.00586 v 15 c 0,1.645 1.358885,2.99609 3.003907,2.99609 h 33.611328 c 2.41768,0 4.339599,-0.66735 5.654296,-1.75585 1.314699,-1.08856 2.00292,-2.61529 1.896485,-4.13477 z"
         transform="matrix(0.26458334,0,0,0.26458334,0,280.06666)"
         sodipodi:nodetypes="cccccsssssccc" />
      <path
         style="color:#000000;fill:#f0517a;stroke-width:0.743299;stroke-linecap:round;stroke-linejoin:round;-inkscape-stroke:none"
         d="m -27.53125,317.90039 c -0.36338,0 -0.611327,0.33038 -0.611328,0.67969 v 0.7539 c 1e-6,0.34931 0.247948,0.68164 0.611328,0.68164 h 0.976563 a 0.26461046,0.26461046 0 0 0 0.263671,-0.26367 v -1.58789 a 0.26461046,0.26461046 0 0 0 -0.263671,-0.26367 z"
         id="path305285" />
      <path
         id="path257462"
         style="color:#000000;fill:#cccccc;stroke-width:2.80932;stroke-linecap:round;stroke-linejoin:round;-inkscape-stroke:none"
         d="m -81.244141,123.10156 v 13.12305 c 0,1.66481 1.368443,3.0332 3.033203,3.0332 h 14.134766 c -0.220655,-1.18783 -0.81486,-2.28488 -1.710937,-3.12109 l -12.291016,-11.46484 c -0.884406,-0.82532 -1.987994,-1.3674 -3.166016,-1.57032 z"
         transform="matrix(0.26458334,0,0,0.26458334,0,280.06666)" />
      <path
         id="path1343-9-7"
         style="color:#000000;fill:#3a4d5c;stroke-width:2.80932;stroke-linecap:round;stroke-linejoin:round;-inkscape-stroke:none"
         d="m -102.64453,132.99023 a 1.0000006,1.0000006 0 0 0 -0.99805,0.99805 1.0000006,1.0000006 0 0 0 0.99805,1.00391 h 3.970702 a 1.0000006,1.0000006 0 0 0 1.003906,-1.00391 1.0000006,1.0000006 0 0 0 -1.003906,-0.99805 z m 8.044921,0 a 1.0000006,1.0000006 0 0 0 -0.996094,0.99805 1.0000006,1.0000006 0 0 0 0.996094,1.00391 h 10.283203 a 1.0000006,1.0000006 0 0 0 0.996094,-1.00391 1.0000006,1.0000006 0 0 0 -0.996094,-0.99805 z m -7.765621,4.99805 a 1.0000006,1.0000006 0 0 0 -0.9961,1.00391 1.0000006,1.0000006 0 0 0 0.9961,0.99609 h 18.048824 a 1.0000006,1.0000006 0 0 0 0.996094,-0.99609 1.0000006,1.0000006 0 0 0 -0.996094,-1.00391 z"
         transform="matrix(0.26458334,0,0,0.26458334,0,280.06666)" />
      <path
         style="color:#000000;fill:#4895ef;fill-opacity:1;stroke-width:0.743299;stroke-linecap:round;stroke-linejoin:round;-inkscape-stroke:none"
         d="m -26.554687,317.90039 a 0.26461046,0.26461046 0 0 0 -0.263672,0.26367 v 1.58789 a 0.26461046,0.26461046 0 0 0 0.263672,0.26367 h 6.085937 a 0.26461046,0.26461046 0 0 0 0.263672,-0.26367 v -1.58789 a 0.26461046,0.26461046 0 0 0 -0.263672,-0.26367 z"
         id="path305486" />
      <path
         id="path109038"
         style="color:#000000;fill:#4377d1;fill-opacity:1;stroke-width:0.743299;stroke-linecap:round;stroke-linejoin:round;-inkscape-stroke:none"
         d="m -26.554452,317.90053 a 0.26461046,0.26461046 0 0 0 -0.264067,0.26355 v 0.52916 a 0.26461046,0.26461046 0 0 1 0.264067,-0.26355 h 6.085933 a 0.26461046,0.26461046 0 0 1 0.263552,0.26355 v -0.52916 a 0.26461046,0.26461046 0 0 0 -0.263552,-0.26355 z" />
      <path
         style="color:#000000;fill:#fed883;fill-opacity:1;stroke-width:0.743299;stroke-linecap:round;stroke-linejoin:round;-inkscape-stroke:none"
         d="m -20.46875,317.90039 a 0.26461046,0.26461046 0 0 0 -0.265625,0.26367 v 1.58789 a 0.26461046,0.26461046 0 0 0 0.265625,0.26367 c 1.325283,0 2.291016,-0.85937 2.291016,-0.85937 a 0.26461046,0.26461046 0 0 0 0,-0.39844 c 0,0 -0.965732,-0.85742 -2.291016,-0.85742 z"
         id="path305678" />
      <path
         id="path112243"
         style="color:#000000;fill:#fec872;fill-opacity:1;stroke-width:0.743299;stroke-linecap:round;stroke-linejoin:round;-inkscape-stroke:none"
         d="m -20.468519,317.90053 a 0.26461046,0.26461046 0 0 0 -0.265616,0.26355 v 0.52916 a 0.26461046,0.26461046 0 0 1 0.265616,-0.26355 c 1.101762,0 1.954236,0.59231 2.210718,0.7922 0.05219,-0.0408 0.0801,-0.0656 0.0801,-0.0656 a 0.26461046,0.26461046 0 0 0 0,-0.39842 c 0,0 -0.965533,-0.85731 -2.290817,-0.85731 z" />
      <path
         id="path27074"
         style="color:#000000;fill:#ececec;fill-opacity:1;stroke-width:2.80932;stroke-linecap:round;stroke-linejoin:round;-inkscape-stroke:none"
         d="m -93.027344,159.53711 c -0.552288,0.002 -0.998257,0.45162 -0.996094,1.00391 0.0021,0.54924 0.446858,0.99395 0.996094,0.99609 h 2.673828 v 8.98437 c -0.0022,0.55229 0.443806,1.00176 0.996094,1.00391 0.555341,0.002 1.006081,-0.44857 1.003906,-1.00391 v -8.98437 h 2.664063 c 0.552285,0.002 1.00175,-0.44381 1.003906,-0.99609 0.0022,-0.55534 -0.448565,-1.00608 -1.003906,-1.00391 z m 22.929688,0 c -0.553052,10e-4 -1.00021,0.45086 -0.998047,1.00391 0.0022,0.55 0.448048,0.99502 0.998047,0.99609 h 2.671875 v 8.98437 c -0.0022,0.55229 0.443805,1.00176 0.996093,1.00391 0.555343,0.002 1.006082,-0.44857 1.003907,-1.00391 v -8.98437 h 2.664062 c 0.552285,0.002 1.00175,-0.4438 1.003907,-0.99609 0.0022,-0.55534 -0.448565,-1.00608 -1.003907,-1.00391 z m -12.564453,0.25 c -0.422669,0.35632 -0.476037,0.98798 -0.119141,1.41016 l 3.625,4.28906 -3.625,4.28906 c -0.356896,0.42218 -0.303528,1.05384 0.119141,1.41016 0.422179,0.35689 1.053839,0.30353 1.410156,-0.11914 l 3.40625,-4.0293 3.40625,4.0293 c 0.356317,0.42267 0.987977,0.47603 1.410156,0.11914 0.422669,-0.35632 0.476037,-0.98798 0.119141,-1.41016 l -3.625,-4.28906 3.625,-4.28906 c 0.356896,-0.42218 0.303528,-1.05384 -0.119141,-1.41016 -0.422179,-0.35689 -1.053839,-0.30353 -1.410156,0.11914 l -3.40625,4.0293 -3.40625,-4.0293 c -0.441177,-0.46066 -1.056715,-0.39162 -1.410156,-0.11914 z"
         transform="matrix(0.26458334,0,0,0.26458334,0,280.06666)"
         sodipodi:nodetypes="cccccccccscccccccccccsccccccccccccccccccc" />
      <path
         style="color:#000000;fill:#3a4d5c;fill-opacity:1;stroke-width:0.743299;stroke-linecap:round;stroke-linejoin:round;-inkscape-stroke:none"
         d="m -20.204969,320.00434 v -2.09274 l -0.529167,-0.0111 v 2.11512 z"
         id="path586703" />
      <path
         id="path104551"
         style="color:#000000;fill:#dc1c4b;fill-opacity:1;stroke-width:0.743299;stroke-linecap:round;stroke-linejoin:round;-inkscape-stroke:none"
         d="m -27.54819,317.90053 c -0.354118,0.0101 -0.594278,0.33569 -0.594278,0.67954 v 0.52917 c 0,-0.34931 0.247952,-0.67955 0.61133,-0.67955 h 0.976686 a 0.26461046,0.26461046 0 0 1 0.263549,0.26355 v -0.52916 a 0.26461046,0.26461046 0 0 0 -0.263549,-0.26355 h -0.976686 c -0.0057,0 -0.01143,-1.6e-4 -0.01705,0 z" />
      <path
         style="color:#000000;fill:#3a4d5c;fill-opacity:1;stroke-width:0.743299;stroke-linecap:round;stroke-linejoin:round;-inkscape-stroke:none"
         d="m -26.290903,320.01564 v -2.11511 l -0.527617,-1.4e-4 v 2.11523 z"
         id="path301183" />
    </g>
  </g>
</svg>
